<?xml version="1.0" encoding="utf-8"?>
<!-- Generator: Adobe Illustrator 16.0.4, SVG Export Plug-In . SVG Version: 6.00 Build 0)  -->
<!DOCTYPE svg PUBLIC "-//W3C//DTD SVG 1.1//EN" "http://www.w3.org/Graphics/SVG/1.1/DTD/svg11.dtd">
<svg version="1.1" id="Layer_1" xmlns="http://www.w3.org/2000/svg" xmlns:xlink="http://www.w3.org/1999/xlink" x="0px" y="0px"
	 width="287.521px" height="102.174px" viewBox="0 0 287.521 102.174" enable-background="new 0 0 287.521 102.174"
	 xml:space="preserve">
  <filter id="drop-shadow">
    <feOffset result="offOut" in="SourceAlpha" dx="0" dy="0" />
    <feGaussianBlur result="blurOut" in="offOut" stdDeviation="3" />
    <feBlend in="SourceGraphic" in2="blurOut" mode="normal" />
  </filter>
<g filter="url(#drop-shadow)">
	<path fill="none" d="M113.58,24.163c-2.542-0.646-6.246,8.639-9.238,20.4c-2.993,11.757-0.816,22.462-0.816,22.462
		s5.203-9.127,8.197-20.885C114.715,34.379,116.123,24.809,113.58,24.163z"/>
	<path fill="none" d="M149.618,67.529c1.64-3.037,1.358-6.369-0.628-7.439c-1.986-1.072-4.926,0.521-6.564,3.559
		c-1.64,3.039-1.58,8.111-1.58,8.111S147.979,70.568,149.618,67.529z"/>
	<path fill="none" d="M168.932,67.017c-3.106,6.072-2.912,12.383,0.434,14.096c3.348,1.714,8.58-1.819,11.688-7.892
		c0.162-0.315,0.309-0.631,0.451-0.945c-0.629-4.143-1.07-8.732-1.317-13.324C176.836,57.723,171.91,61.197,168.932,67.017z"/>
	<path fill="none" d="M44.298,55.208c-1.198,0.567-5.12,2.857-9.453,10.091c-2.756,4.6-5.55,9.283-7.79,12.806
		c1.603,2.352,5.382,4.973,14.054,1.505C52.781,74.943,46.351,59.488,44.298,55.208z"/>
	<path fill="none" d="M193.1,23.593c-2.607-0.13-4.664,9.181-5.6,20.656c-0.938,11.475,2.043,23.557,2.043,23.557
		s4.539-11.987,5.477-23.46C195.956,32.87,195.708,23.721,193.1,23.593z"/>
	<path fill="#FFFFFF" d="M196.576,79.198c-0.975,0.001-1.306-0.383-1.391-0.552c-0.024-0.045-0.045-0.094-0.064-0.143
		c-0.012-0.027-0.021-0.055-0.031-0.082c-0.07-0.195-0.117-0.418-0.139-0.672c-0.367-3.203,1.891-11,2.303-12.273
		c0.589-1.225,4.891-17.438,5.623-22.947c2.248-16.9-2.666-30.739-8.91-31.032c-6.242-0.291-12.375,13.128-13.697,29.974
		c-0.281,3.576-0.372,7.712-0.287,12.011c-6.902-2.016-15.256,3.277-19.164,12.418c-1.825,4.268-2.371,8.657-1.806,12.492
		c-5.969,4.066-12.243,4.727-12.271,4.73c0-0.002,0-0.004,0.001-0.006c-1.665,0.217-3.252-0.105-4.521-1.049
		c-0.232-0.174-0.442-0.367-0.641-0.572c4.635-0.191,9.842-3.275,13.461-8.477c5.242-7.537,5.164-16.658-0.176-20.372
		c-5.338-3.713-13.916-0.616-19.159,6.92c-1.203,1.73-2.112,3.543-2.756,5.355l-0.001-0.045c0,0-3.559,9.394-1.856,17.613
		c-0.563,0.183-0.879,0.198-0.889,0.201c-0.001-0.002-0.001-0.004-0.001-0.006c-1.652,0.287-3.252,0.035-4.561-0.854
		c-1.645-1.115-2.523-3.023-2.643-5.229c-0.021-0.146-0.047-0.928-0.016-1.164c-0.004,0-0.007-0.002-0.01-0.002
		c0.855-8.848,10.68-21.947,5.598-23.917c-3.281-1.273-8.324,0.774-13.654,5.041c1.572-3.708,3.193-7.368,4.861-10.769
		c7.84-15.994,2.927-32.518-3.162-34.049c-6.088-1.529-14.543,11.232-18.886,28.507c-2.508,9.977-4.396,24.515-4.393,35.39
		c-7.338,6.188-13.938,7.684-19.156,6.673c-5.09-0.986-8.806-7.438-8.125-15.654c0.681-8.215,5.421-14.528,10.589-14.1
		c3.66,0.303,6.453,2.107,5.451,5.631c-0.412,0.771-0.647,1.652-0.647,2.588c0,3.037,2.462,5.5,5.5,5.5
		c2.589,0,4.754-1.791,5.339-4.199l0.01,0.002c2.497-9.833-5.751-18.591-13.781-19.578c-9.456-1.161-18.458,8.785-20.106,22.216
		c-0.207,1.687-0.273,3.367-0.209,5.018l-2.194,3.872c-0.501-9.03-5.481-18.54-7.429-21.94c0.49-0.985,0.864-2.132,1.064-3.383
		c0.666-4.143-0.795-7.818-3.261-8.215c-2.178-0.349-4.409,1.979-5.359,5.381l0-0.003c-5.45,17.042-21.803,28.855-21.803,28.855
		l0.002,0.006c-0.781,0.537-1.544,1.272-2.225,2.201c-2.338,3.186-2.837,7.359-1.117,9.322c1.72,1.964,5.008,0.974,7.345-2.209
		c2.097,2.465,8.501,9.008,16.982,8.455l-0.09,0.086c7.736,0.251,16.655-5.906,21.484-9.789c2.953,5.298,7.624,8.86,13.265,8.904
		c6.668,0.051,13.484-2.456,18.85-8.279c0.497,4.093,1.503,6.864,3.166,7.389c3.123,0.982,6.988-7.119,11.428-17.791
		c5.387-9.744,16.801-18.242,14.311-13.672c-3.707,6.805-5.973,9.674-7.468,21.691c-0.108,0.869-0.144,1.715-0.101,2.529
		c0,0.066-0.004,0.129-0.002,0.193c0.041,0.936,0.258,1.818,0.604,2.631c0.01,0.025,0.019,0.049,0.029,0.074
		c0.873,1.996,2.582,3.52,4.662,4.18l-0.016,0.041c0.084,0.016,0.168,0.027,0.251,0.043c0.513,0.145,1.049,0.219,1.597,0.252
		c1.096,0.133,2.211,0.193,3.35,0.145c3.371-0.146,6.192-0.87,8.481-2.059c0.733,0.681,1.597,1.223,2.556,1.574l-0.016,0.039
		c0.082,0.02,0.166,0.035,0.248,0.055c0.505,0.166,1.038,0.264,1.584,0.32c1.088,0.182,2.2,0.291,3.34,0.291
		c6.954,0,14.316-2.957,18.833-7.559c1.256,2.505,3.152,4.472,5.64,5.535c5.579,2.386,12.385-0.434,17.057-6.43
		c0.087,0.646,0.217,1.273,0.424,1.854c0.008,0.023,0.016,0.048,0.023,0.07c0.713,1.955,2.063,3.447,3.684,4.094l-0.012,0.041
		c0.065,0.016,0.131,0.027,0.195,0.043c0.398,0.142,0.814,0.215,1.239,0.246c0.849,0.133,1.712,0.193,2.591,0.146
		c8.818-0.475,28.426-10.285,28.676-23.473C209.523,77.119,199.539,79.07,196.576,79.198z M27.055,78.104
		c2.24-3.522,5.034-8.206,7.79-12.806c4.333-7.233,8.255-9.523,9.453-10.091c2.052,4.28,8.483,19.735-3.189,24.401
		C32.437,83.077,28.658,80.456,27.055,78.104z M111.723,46.14c-2.994,11.758-8.197,20.885-8.197,20.885s-2.177-10.705,0.816-22.462
		c2.992-11.762,6.696-21.047,9.238-20.4C116.123,24.809,114.715,34.379,111.723,46.14z M142.426,63.648
		c1.639-3.037,4.578-4.631,6.564-3.559c1.986,1.07,2.268,4.402,0.628,7.439c-1.64,3.039-8.772,4.23-8.772,4.23
		S140.786,66.688,142.426,63.648z M181.053,73.221c-3.107,6.072-8.34,9.605-11.688,7.892c-3.346-1.713-3.54-8.023-0.434-14.096
		c2.979-5.819,7.904-9.294,11.255-8.065c0.247,4.592,0.688,9.182,1.317,13.324C181.361,72.59,181.215,72.905,181.053,73.221z
		 M189.543,67.806c0,0-2.98-12.082-2.043-23.557c0.936-11.475,2.992-20.786,5.6-20.656c2.608,0.128,2.856,9.277,1.92,20.753
		C194.082,55.818,189.543,67.806,189.543,67.806z"/>
	<path fill="#FFFFFF" d="M252.552,11.593v10.383h5.314v43.736l-9.291,9.292h-13.31l-9.353-9.352V21.976h5.316V11.593h-24.969v10.383
		h5.314v48.571c1.648-0.703,8.254-6.549,9.43-9.141c0,0,3.562,7.281-3.233,16.261l11.542,11.661v0.014h25.215v-0.014l17.676-17.959
		V21.976h5.316V11.593H252.552z"/>
</g>
</svg>
